{
	"asset":{
		"generator":"Khronos glTF Blender I/O v4.0.44",
		"version":"2.0"
	},
	"scene":0,
	"scenes":[
		{
			"name":"Scene",
			"nodes":[
				0,
				1,
				2,
				3,
				4,
				5,
				6,
				7,
				8,
				9,
				10,
				11,
				12,
				13
			]
		}
	],
	"nodes":[
		{
			"mesh":0,
			"name":"piece_queen_white",
			"translation":[
				-0.48818787932395935,
				0.017392655834555626,
				-0.20260828733444214
			]
		},
		{
			"mesh":1,
			"name":"piece_king_white",
			"translation":[
				-0.5330943465232849,
				0.017392655834555626,
				-0.20260828733444214
			]
		},
		{
			"mesh":2,
			"name":"board"
		},
		{
			"mesh":3,
			"name":"piece_knight_white",
			"translation":[
				-0.39972901344299316,
				0.017392655834555626,
				-0.20260828733444214
			]
		},
		{
			"mesh":4,
			"name":"piece_rook_white",
			"translation":[
				-0.3397290110588074,
				0.017393000423908234,
				-0.20260800421237946
			]
		},
		{
			"mesh":5,
			"name":"piece_bishop_white",
			"translation":[
				-0.4448469877243042,
				0.017392655834555626,
				-0.20260828733444214
			]
		},
		{
			"mesh":6,
			"name":"piece_pawn_white",
			"translation":[
				-0.3397290110588074,
				0.017392655834555626,
				-0.144720196723938
			]
		},
		{
			"mesh":7,
			"name":"piece_rook_black",
			"translation":[
				-0.33965957164764404,
				0.017392655834555626,
				0.2018999457359314
			]
		},
		{
			"mesh":8,
			"name":"piece_pawn_black",
			"translation":[
				-0.3397290110588074,
				0.017392655834555626,
				0.14401185512542725
			]
		},
		{
			"mesh":9,
			"name":"piece_bishop_black",
			"translation":[
				-0.44375860691070557,
				0.017392655834555626,
				0.2018999457359314
			]
		},
		{
			"mesh":10,
			"name":"piece_queen_black",
			"translation":[
				-0.4919905364513397,
				0.017392655834555626,
				0.2018999457359314
			]
		},
		{
			"mesh":11,
			"name":"piece_king_black",
			"translation":[
				-0.5397811532020569,
				0.017392585054039955,
				0.2026081383228302
			]
		},
		{
			"mesh":12,
			"name":"piece_knight_black",
			"translation":[
				-0.39255058765411377,
				0.017392655834555626,
				0.2018999457359314
			]
		},
		{
			"name":"start_position",
			"translation":[
				0.20260800421237946,
				0.017393000423908234,
				0.20260800421237946
			]
		}
	],
	"materials":[
		{
			"doubleSided":true,
			"name":"chess_set_pieces_white",
			"normalTexture":{
				"index":0
			},
			"pbrMetallicRoughness":{
				"baseColorTexture":{
					"index":1
				},
				"metallicFactor":0,
				"metallicRoughnessTexture":{
					"index":2
				}
			}
		},
		{
			"doubleSided":true,
			"name":"chess_set_board",
			"normalTexture":{
				"index":3
			},
			"pbrMetallicRoughness":{
				"baseColorTexture":{
					"index":4
				},
				"metallicFactor":0,
				"metallicRoughnessTexture":{
					"index":5
				}
			}
		},
		{
			"doubleSided":true,
			"name":"chess_set_pieces_black",
			"normalTexture":{
				"index":6
			},
			"pbrMetallicRoughness":{
				"baseColorTexture":{
					"index":7
				},
				"metallicFactor":0,
				"metallicRoughnessTexture":{
					"index":8
				}
			}
		}
	],
	"meshes":[
		{
			"name":"Cylinder.005",
			"primitives":[
				{
					"attributes":{
						"POSITION":0,
						"NORMAL":1,
						"TEXCOORD_0":2
					},
					"indices":3,
					"material":0
				}
			]
		},
		{
			"name":"Cylinder.006",
			"primitives":[
				{
					"attributes":{
						"POSITION":4,
						"NORMAL":5,
						"TEXCOORD_0":6,
						"TEXCOORD_1":7
					},
					"indices":8,
					"material":0
				}
			]
		},
		{
			"name":"Cube.004",
			"primitives":[
				{
					"attributes":{
						"POSITION":9,
						"NORMAL":10,
						"TEXCOORD_0":11
					},
					"indices":12,
					"material":1
				}
			]
		},
		{
			"name":"mesh.006",
			"primitives":[
				{
					"attributes":{
						"POSITION":13,
						"NORMAL":14,
						"TEXCOORD_0":15
					},
					"indices":16,
					"material":0
				}
			]
		},
		{
			"name":"ChessRook.002",
			"primitives":[
				{
					"attributes":{
						"POSITION":17,
						"NORMAL":18,
						"TEXCOORD_0":19
					},
					"indices":20,
					"material":0
				}
			]
		},
		{
			"name":"Cylinder.001",
			"primitives":[
				{
					"attributes":{
						"POSITION":21,
						"NORMAL":22,
						"TEXCOORD_0":23
					},
					"indices":24,
					"material":0
				}
			]
		},
		{
			"name":"Cylinder.020",
			"primitives":[
				{
					"attributes":{
						"POSITION":25,
						"NORMAL":26,
						"TEXCOORD_0":27
					},
					"indices":28,
					"material":0
				}
			]
		},
		{
			"name":"ChessRook.007",
			"primitives":[
				{
					"attributes":{
						"POSITION":29,
						"NORMAL":30,
						"TEXCOORD_0":31
					},
					"indices":32,
					"material":2
				}
			]
		},
		{
			"name":"Cylinder.021",
			"primitives":[
				{
					"attributes":{
						"POSITION":33,
						"NORMAL":34,
						"TEXCOORD_0":35
					},
					"indices":36,
					"material":2
				}
			]
		},
		{
			"name":"Cylinder.022",
			"primitives":[
				{
					"attributes":{
						"POSITION":37,
						"NORMAL":38,
						"TEXCOORD_0":39
					},
					"indices":40,
					"material":2
				}
			]
		},
		{
			"name":"Cylinder.023",
			"primitives":[
				{
					"attributes":{
						"POSITION":41,
						"NORMAL":42,
						"TEXCOORD_0":43
					},
					"indices":3,
					"material":2
				}
			]
		},
		{
			"name":"Cylinder.024",
			"primitives":[
				{
					"attributes":{
						"POSITION":44,
						"NORMAL":45,
						"TEXCOORD_0":46,
						"TEXCOORD_1":47
					},
					"indices":8,
					"material":2
				}
			]
		},
		{
			"name":"mesh.007",
			"primitives":[
				{
					"attributes":{
						"POSITION":48,
						"NORMAL":49,
						"TEXCOORD_0":50
					},
					"indices":16,
					"material":2
				}
			]
		}
	],
	"textures":[
		{
			"sampler":0,
			"source":0
		},
		{
			"sampler":0,
			"source":1
		},
		{
			"sampler":0,
			"source":2
		},
		{
			"sampler":0,
			"source":3
		},
		{
			"sampler":0,
			"source":4
		},
		{
			"sampler":0,
			"source":5
		},
		{
			"sampler":0,
			"source":6
		},
		{
			"sampler":0,
			"source":7
		},
		{
			"sampler":0,
			"source":8
		}
	],
	"images":[
		{
			"mimeType":"image/jpeg",
			"name":"chess_set_pieces_white_nor_gl_1k",
			"uri":"textures/chess_set_pieces_white_nor_gl_1k.jpg"
		},
		{
			"mimeType":"image/jpeg",
			"name":"chess_set_pieces_white_diff_1k",
			"uri":"textures/chess_set_pieces_white_diff_1k.jpg"
		},
		{
			"mimeType":"image/jpeg",
			"name":"chess_set_pieces_white_arm_1k",
			"uri":"textures/chess_set_pieces_white_arm_1k.jpg"
		},
		{
			"mimeType":"image/jpeg",
			"name":"chess_set_board_nor_gl_1k",
			"uri":"textures/chess_set_board_nor_gl_1k.jpg"
		},
		{
			"mimeType":"image/jpeg",
			"name":"chess_set_board_diff_1k",
			"uri":"textures/chess_set_board_diff_1k.jpg"
		},
		{
			"mimeType":"image/jpeg",
			"name":"chess_set_board_arm_1k",
			"uri":"textures/chess_set_board_arm_1k.jpg"
		},
		{
			"mimeType":"image/jpeg",
			"name":"chess_set_pieces_black_nor_gl_1k",
			"uri":"textures/chess_set_pieces_black_nor_gl_1k.jpg"
		},
		{
			"mimeType":"image/jpeg",
			"name":"chess_set_pieces_black_diff_1k",
			"uri":"textures/chess_set_pieces_black_diff_1k.jpg"
		},
		{
			"mimeType":"image/jpeg",
			"name":"chess_set_pieces_black_arm_1k",
			"uri":"textures/chess_set_pieces_black_arm_1k.jpg"
		}
	],
	"accessors":[
		{
			"bufferView":0,
			"componentType":5126,
			"count":1827,
			"max":[
				0.020295275375247,
				0.09045390784740448,
				0.020382003858685493
			],
			"min":[
				-0.02028528042137623,
				-0.00026654338580556214,
				-0.020381664857268333
			],
			"type":"VEC3"
		},
		{
			"bufferView":1,
			"componentType":5126,
			"count":1827,
			"type":"VEC3"
		},
		{
			"bufferView":2,
			"componentType":5126,
			"count":1827,
			"type":"VEC2"
		},
		{
			"bufferView":3,
			"componentType":5123,
			"count":8820,
			"type":"SCALAR"
		},
		{
			"bufferView":4,
			"componentType":5126,
			"count":2643,
			"max":[
				0.02075229585170746,
				0.09500318765640259,
				0.02086399495601654
			],
			"min":[
				-0.020774859935045242,
				0,
				-0.02085612155497074
			],
			"type":"VEC3"
		},
		{
			"bufferView":5,
			"componentType":5126,
			"count":2643,
			"type":"VEC3"
		},
		{
			"bufferView":6,
			"componentType":5126,
			"count":2643,
			"type":"VEC2"
		},
		{
			"bufferView":7,
			"componentType":5126,
			"count":2643,
			"type":"VEC2"
		},
		{
			"bufferView":8,
			"componentType":5123,
			"count":12516,
			"type":"SCALAR"
		},
		{
			"bufferView":9,
			"componentType":5126,
			"count":1526,
			"max":[
				0.27661898732185364,
				0.017392585054039955,
				0.27661898732185364
			],
			"min":[
				-0.27661898732185364,
				4.2891606426564977e-05,
				-0.27661898732185364
			],
			"type":"VEC3"
		},
		{
			"bufferView":10,
			"componentType":5126,
			"count":1526,
			"type":"VEC3"
		},
		{
			"bufferView":11,
			"componentType":5126,
			"count":1526,
			"type":"VEC2"
		},
		{
			"bufferView":12,
			"componentType":5123,
			"count":6624,
			"type":"SCALAR"
		},
		{
			"bufferView":13,
			"componentType":5126,
			"count":1705,
			"max":[
				0.019403478130698204,
				0.07499857991933823,
				0.024384917691349983
			],
			"min":[
				-0.019391505047678947,
				-3.755149080575393e-09,
				-0.02099723182618618
			],
			"type":"VEC3"
		},
		{
			"bufferView":14,
			"componentType":5126,
			"count":1705,
			"type":"VEC3"
		},
		{
			"bufferView":15,
			"componentType":5126,
			"count":1705,
			"type":"VEC2"
		},
		{
			"bufferView":16,
			"componentType":5123,
			"count":7986,
			"type":"SCALAR"
		},
		{
			"bufferView":17,
			"componentType":5126,
			"count":2030,
			"max":[
				0.018426168709993362,
				0.060513511300086975,
				0.01856144331395626
			],
			"min":[
				-0.018329130485653877,
				-5.737451647291891e-05,
				-0.018137037754058838
			],
			"type":"VEC3"
		},
		{
			"bufferView":18,
			"componentType":5126,
			"count":2030,
			"type":"VEC3"
		},
		{
			"bufferView":19,
			"componentType":5126,
			"count":2030,
			"type":"VEC2"
		},
		{
			"bufferView":20,
			"componentType":5123,
			"count":8928,
			"type":"SCALAR"
		},
		{
			"bufferView":21,
			"componentType":5126,
			"count":1851,
			"max":[
				0.01612257957458496,
				0.08581218123435974,
				0.016050374135375023
			],
			"min":[
				-0.016068585216999054,
				0,
				-0.0161648690700531
			],
			"type":"VEC3"
		},
		{
			"bufferView":22,
			"componentType":5126,
			"count":1851,
			"type":"VEC3"
		},
		{
			"bufferView":23,
			"componentType":5126,
			"count":1851,
			"type":"VEC2"
		},
		{
			"bufferView":24,
			"componentType":5123,
			"count":8772,
			"type":"SCALAR"
		},
		{
			"bufferView":25,
			"componentType":5126,
			"count":1038,
			"max":[
				0.014483553357422352,
				0.053703341633081436,
				0.01444040797650814
			],
			"min":[
				-0.014420497231185436,
				-7.083472031155225e-09,
				-0.014433925040066242
			],
			"type":"VEC3"
		},
		{
			"bufferView":26,
			"componentType":5126,
			"count":1038,
			"type":"VEC3"
		},
		{
			"bufferView":27,
			"componentType":5126,
			"count":1038,
			"type":"VEC2"
		},
		{
			"bufferView":28,
			"componentType":5123,
			"count":4920,
			"type":"SCALAR"
		},
		{
			"bufferView":29,
			"componentType":5126,
			"count":2031,
			"max":[
				0.018329130485653877,
				0.060513511300086975,
				0.018137037754058838
			],
			"min":[
				-0.018426168709993362,
				-5.737451647291891e-05,
				-0.01856144331395626
			],
			"type":"VEC3"
		},
		{
			"bufferView":30,
			"componentType":5126,
			"count":2031,
			"type":"VEC3"
		},
		{
			"bufferView":31,
			"componentType":5126,
			"count":2031,
			"type":"VEC2"
		},
		{
			"bufferView":32,
			"componentType":5123,
			"count":8928,
			"type":"SCALAR"
		},
		{
			"bufferView":33,
			"componentType":5126,
			"count":1039,
			"max":[
				0.014420497231185436,
				0.053703341633081436,
				0.014433925040066242
			],
			"min":[
				-0.014483553357422352,
				-7.083472031155225e-09,
				-0.01444040797650814
			],
			"type":"VEC3"
		},
		{
			"bufferView":34,
			"componentType":5126,
			"count":1039,
			"type":"VEC3"
		},
		{
			"bufferView":35,
			"componentType":5126,
			"count":1039,
			"type":"VEC2"
		},
		{
			"bufferView":36,
			"componentType":5123,
			"count":4920,
			"type":"SCALAR"
		},
		{
			"bufferView":37,
			"componentType":5126,
			"count":1850,
			"max":[
				0.016068587079644203,
				0.08581218123435974,
				0.0161648690700531
			],
			"min":[
				-0.01612257771193981,
				0,
				-0.016050374135375023
			],
			"type":"VEC3"
		},
		{
			"bufferView":38,
			"componentType":5126,
			"count":1850,
			"type":"VEC3"
		},
		{
			"bufferView":39,
			"componentType":5126,
			"count":1850,
			"type":"VEC2"
		},
		{
			"bufferView":40,
			"componentType":5123,
			"count":8772,
			"type":"SCALAR"
		},
		{
			"bufferView":41,
			"componentType":5126,
			"count":1827,
			"max":[
				0.020285282284021378,
				0.09045390784740448,
				0.020381664857268333
			],
			"min":[
				-0.02029527723789215,
				-0.00026654338580556214,
				-0.020382003858685493
			],
			"type":"VEC3"
		},
		{
			"bufferView":42,
			"componentType":5126,
			"count":1827,
			"type":"VEC3"
		},
		{
			"bufferView":43,
			"componentType":5126,
			"count":1827,
			"type":"VEC2"
		},
		{
			"bufferView":44,
			"componentType":5126,
			"count":2643,
			"max":[
				0.020774858072400093,
				0.09500318765640259,
				0.02085612155497074
			],
			"min":[
				-0.02075229398906231,
				0,
				-0.02086399495601654
			],
			"type":"VEC3"
		},
		{
			"bufferView":45,
			"componentType":5126,
			"count":2643,
			"type":"VEC3"
		},
		{
			"bufferView":46,
			"componentType":5126,
			"count":2643,
			"type":"VEC2"
		},
		{
			"bufferView":47,
			"componentType":5126,
			"count":2643,
			"type":"VEC2"
		},
		{
			"bufferView":48,
			"componentType":5126,
			"count":1705,
			"max":[
				0.019391505047678947,
				0.07499857991933823,
				0.02099723182618618
			],
			"min":[
				-0.019403478130698204,
				-3.755149080575393e-09,
				-0.024384917691349983
			],
			"type":"VEC3"
		},
		{
			"bufferView":49,
			"componentType":5126,
			"count":1705,
			"type":"VEC3"
		},
		{
			"bufferView":50,
			"componentType":5126,
			"count":1705,
			"type":"VEC2"
		}
	],
	"bufferViews":[
		{
			"buffer":0,
			"byteLength":21924,
			"byteOffset":0,
			"target":34962
		},
		{
			"buffer":0,
			"byteLength":21924,
			"byteOffset":21924,
			"target":34962
		},
		{
			"buffer":0,
			"byteLength":14616,
			"byteOffset":43848,
			"target":34962
		},
		{
			"buffer":0,
			"byteLength":17640,
			"byteOffset":58464,
			"target":34963
		},
		{
			"buffer":0,
			"byteLength":31716,
			"byteOffset":76104,
			"target":34962
		},
		{
			"buffer":0,
			"byteLength":31716,
			"byteOffset":107820,
			"target":34962
		},
		{
			"buffer":0,
			"byteLength":21144,
			"byteOffset":139536,
			"target":34962
		},
		{
			"buffer":0,
			"byteLength":21144,
			"byteOffset":160680,
			"target":34962
		},
		{
			"buffer":0,
			"byteLength":25032,
			"byteOffset":181824,
			"target":34963
		},
		{
			"buffer":0,
			"byteLength":18312,
			"byteOffset":206856,
			"target":34962
		},
		{
			"buffer":0,
			"byteLength":18312,
			"byteOffset":225168,
			"target":34962
		},
		{
			"buffer":0,
			"byteLength":12208,
			"byteOffset":243480,
			"target":34962
		},
		{
			"buffer":0,
			"byteLength":13248,
			"byteOffset":255688,
			"target":34963
		},
		{
			"buffer":0,
			"byteLength":20460,
			"byteOffset":268936,
			"target":34962
		},
		{
			"buffer":0,
			"byteLength":20460,
			"byteOffset":289396,
			"target":34962
		},
		{
			"buffer":0,
			"byteLength":13640,
			"byteOffset":309856,
			"target":34962
		},
		{
			"buffer":0,
			"byteLength":15972,
			"byteOffset":323496,
			"target":34963
		},
		{
			"buffer":0,
			"byteLength":24360,
			"byteOffset":339468,
			"target":34962
		},
		{
			"buffer":0,
			"byteLength":24360,
			"byteOffset":363828,
			"target":34962
		},
		{
			"buffer":0,
			"byteLength":16240,
			"byteOffset":388188,
			"target":34962
		},
		{
			"buffer":0,
			"byteLength":17856,
			"byteOffset":404428,
			"target":34963
		},
		{
			"buffer":0,
			"byteLength":22212,
			"byteOffset":422284,
			"target":34962
		},
		{
			"buffer":0,
			"byteLength":22212,
			"byteOffset":444496,
			"target":34962
		},
		{
			"buffer":0,
			"byteLength":14808,
			"byteOffset":466708,
			"target":34962
		},
		{
			"buffer":0,
			"byteLength":17544,
			"byteOffset":481516,
			"target":34963
		},
		{
			"buffer":0,
			"byteLength":12456,
			"byteOffset":499060,
			"target":34962
		},
		{
			"buffer":0,
			"byteLength":12456,
			"byteOffset":511516,
			"target":34962
		},
		{
			"buffer":0,
			"byteLength":8304,
			"byteOffset":523972,
			"target":34962
		},
		{
			"buffer":0,
			"byteLength":9840,
			"byteOffset":532276,
			"target":34963
		},
		{
			"buffer":0,
			"byteLength":24372,
			"byteOffset":542116,
			"target":34962
		},
		{
			"buffer":0,
			"byteLength":24372,
			"byteOffset":566488,
			"target":34962
		},
		{
			"buffer":0,
			"byteLength":16248,
			"byteOffset":590860,
			"target":34962
		},
		{
			"buffer":0,
			"byteLength":17856,
			"byteOffset":607108,
			"target":34963
		},
		{
			"buffer":0,
			"byteLength":12468,
			"byteOffset":624964,
			"target":34962
		},
		{
			"buffer":0,
			"byteLength":12468,
			"byteOffset":637432,
			"target":34962
		},
		{
			"buffer":0,
			"byteLength":8312,
			"byteOffset":649900,
			"target":34962
		},
		{
			"buffer":0,
			"byteLength":9840,
			"byteOffset":658212,
			"target":34963
		},
		{
			"buffer":0,
			"byteLength":22200,
			"byteOffset":668052,
			"target":34962
		},
		{
			"buffer":0,
			"byteLength":22200,
			"byteOffset":690252,
			"target":34962
		},
		{
			"buffer":0,
			"byteLength":14800,
			"byteOffset":712452,
			"target":34962
		},
		{
			"buffer":0,
			"byteLength":17544,
			"byteOffset":727252,
			"target":34963
		},
		{
			"buffer":0,
			"byteLength":21924,
			"byteOffset":744796,
			"target":34962
		},
		{
			"buffer":0,
			"byteLength":21924,
			"byteOffset":766720,
			"target":34962
		},
		{
			"buffer":0,
			"byteLength":14616,
			"byteOffset":788644,
			"target":34962
		},
		{
			"buffer":0,
			"byteLength":31716,
			"byteOffset":803260,
			"target":34962
		},
		{
			"buffer":0,
			"byteLength":31716,
			"byteOffset":834976,
			"target":34962
		},
		{
			"buffer":0,
			"byteLength":21144,
			"byteOffset":866692,
			"target":34962
		},
		{
			"buffer":0,
			"byteLength":21144,
			"byteOffset":887836,
			"target":34962
		},
		{
			"buffer":0,
			"byteLength":20460,
			"byteOffset":908980,
			"target":34962
		},
		{
			"buffer":0,
			"byteLength":20460,
			"byteOffset":929440,
			"target":34962
		},
		{
			"buffer":0,
			"byteLength":13640,
			"byteOffset":949900,
			"target":34962
		}
	],
	"samplers":[
		{
			"magFilter":9729,
			"minFilter":9987
		}
	],
	"buffers":[
		{
			"byteLength":963540,
			"uri":"chess_set.bin"
		}
	]
}
